:FULLY-SPECIFIED
:FORCE-ALL-JOINTS-BE-3DOF
:DEGREES
1019
root 1.14726 15.1606 32.4378 4.84057 -3.38535 363.572
lfemur 8.40287 0.420188 5.73099
ltibia -7.04267e-15 0 0
lfoot -30.1344 -10.9919 0
ltoes -34.4161 0 0
rfemur -31.5306 -15.9582 -6.03189
rtibia 50.1716 0 0
rfoot -22.4247 4.61069 0
rtoes -42.714 0 0
lowerback -1.42356 -0.168068 0.310027
upperback -0.509514 -0.211765 -5.91816
thorax 0.250979 -0.112469 -6.31458
lowerneck -7.21669 0.914808 6.20663
upperneck 1.60685 0.537297 3.45662
head 1.73893 0.401103 0.0554032
lclavicle -7.86619e-15 1.70387e-14 0
lhumerus -58.5898 -46.392 115.219
lradius 55.7308 0 0
lwrist 25.2901 0 0
lhand 37.2328 24.8817 0
lfingers 7.12502 0 0
lthumb 60.0644 38.5942 0
rclavicle -7.86619e-15 1.70387e-14 0
rhumerus 2.77598 -23.8464 0.267599
rradius 27.6803 0 0
rwrist -10.299 0 0
rhand -30.732 -42.9387 0
rfingers 7.12502 0 0
rthumb -4.02428 -792.881 0
1020
root 1.14752 15.1605 32.4402 4.84171 -3.38254 363.56
lfemur 8.41154 0.41858 5.74381
ltibia -2.49903e-15 0 0
lfoot -30.1382 -10.9878 0
ltoes -34.4249 0 0
rfemur -31.5273 -15.9529 -6.02436
rtibia 50.1804 0 0
rfoot -22.3965 4.65404 0
rtoes -42.6422 0 0
lowerback -1.4334 -0.159742 0.291117
upperback -0.513342 -0.200206 -5.92538
thorax 0.253895 -0.106652 -6.31121
lowerneck -7.21764 0.909757 6.23091
upperneck 1.62591 0.527089 3.46483
head 1.74532 0.39708 0.0535742
lclavicle -8.33476e-15 8.40573e-15 0
lhumerus -58.6079 -46.4158 115.234
lradius 55.7426 0 0
lwrist 25.2889 0 0
lhand 37.236 24.9106 0
lfingers 7.12502 0 0
lthumb 60.0671 38.6203 0
rclavicle -8.33476e-15 8.40573e-15 0
rhumerus 2.76412 -23.8412 0.268724
rradius 27.6723 0 0
rwrist -10.2673 0 0
rhand -30.7243 -42.8873 0
rfingers 7.12502 0 0
rthumb -4.01693 -792.829 0
1021
root 1.14779 15.1603 32.4425 4.84285 -3.37973 363.547
lfemur 8.42022 0.416971 5.75662
ltibia 2.04461e-15 0 0
lfoot -30.1419 -10.9837 0
ltoes -34.4338 0 0
rfemur -31.5241 -15.9475 -6.01683
rtibia 50.1892 0 0
rfoot -22.3683 4.69739 0
rtoes -42.5704 0 0
lowerback -1.44323 -0.151417 0.272206
upperback -0.517171 -0.188648 -5.93259
thorax 0.25681 -0.100835 -6.30785
lowerneck -7.2186 0.904707 6.25519
upperneck 1.64497 0.516881 3.47304
head 1.7517 0.393058 0.0517453
lclavicle -8.80332e-15 -2.27214e-16 0
lhumerus -58.6261 -46.4396 115.25
lradius 55.7544 0 0
lwrist 25.2877 0 0
lhand 37.2392 24.9395 0
lfingers 7.12502 0 0
lthumb 60.0698 38.6463 0
rclavicle -8.80332e-15 -2.27214e-16 0
rhumerus 2.75227 -23.836 0.269849
rradius 27.6644 0 0
rwrist -10.2356 0 0
rhand -30.7167 -42.8359 0
rfingers 7.12502 0 0
rthumb -4.00957 -792.778 0
1022
root 1.14805 15.1601 32.4449 4.844 -3.37692 363.535
lfemur 8.42889 0.415362 5.76943
ltibia 6.58826e-15 0 0
lfoot -30.1457 -10.9797 0
ltoes -34.4426 0 0
rfemur -31.5209 -15.9422 -6.0093
rtibia 50.198 0 0
rfoot -22.3401 4.74074 0
rtoes -42.4986 0 0
lowerback -1.45307 -0.143092 0.253295
upperback -0.521 -0.17709 -5.9398
thorax 0.259726 -0.0950174 -6.30448
lowerneck -7.21956 0.899657 6.27948
upperneck 1.66402 0.506674 3.48125
head 1.75809 0.389036 0.0499163
lclavicle -9.27189e-15 -8.86016e-15 0
lhumerus -58.6443 -46.4633 115.266
lradius 55.7663 0 0
lwrist 25.2866 0 0
lhand 37.2424 24.9684 0
lfingers 7.12502 0 0
lthumb 60.0726 38.6723 0
rclavicle -9.27189e-15 -8.86016e-15 0
rhumerus 2.74041 -23.8307 0.270974
rradius 27.6564 0 0
rwrist -10.2039 0 0
rhand -30.7091 -42.7846 0
rfingers 7.12502 0 0
rthumb -4.00222 -792.727 0
1023
root 1.14832 15.1599 32.4472 4.84514 -3.37411 363.522
lfemur 8.43757 0.413753 5.78224
ltibia 1.11319e-14 0 0
lfoot -30.1494 -10.9756 0
ltoes -34.4515 0 0
rfemur -31.5177 -15.9368 -6.00177
rtibia 50.2068 0 0
rfoot -22.3119 4.78409 0
rtoes -42.4268 0 0
lowerback -1.4629 -0.134767 0.234384
upperback -0.524829 -0.165532 -5.94701
thorax 0.262641 -0.0892001 -6.30112
lowerneck -7.22052 0.894607 6.30376
upperneck 1.68308 0.496466 3.48946
head 1.76447 0.385014 0.0480874
lclavicle -9.74045e-15 -1.74931e-14 0
lhumerus -58.6625 -46.4871 115.282
lradius 55.7781 0 0
lwrist 25.2854 0 0
lhand 37.2456 24.9973 0
lfingers 7.12502 0 0
lthumb 60.0753 38.6983 0
rclavicle -9.74045e-15 -1.74931e-14 0
rhumerus 2.72856 -23.8255 0.272099
rradius 27.6485 0 0
rwrist -10.1722 0 0
rhand -30.7015 -42.7332 0
rfingers 7.12502 0 0
rthumb -3.99486 -792.676 0
